<svg t="1743736765376" class="icon" viewBox="0 0 1024 1024" version="1.1" xmlns="http://www.w3.org/2000/svg" p-id="964" xmlns:xlink="http://www.w3.org/1999/xlink"><path d="M823.54176 782.58176v-295.81312h-61.44v295.81312c0 6.84032-3.39968 10.24-10.24 10.24H272.13824c-6.84032 0-10.24-3.39968-10.24-10.24v-295.81312h-61.44v295.81312c0 19.82464 6.9632 36.70016 20.97152 50.70848 14.00832 13.96736 30.9248 20.97152 50.70848 20.97152h479.72352c19.78368 0 36.70016-6.9632 50.70848-20.97152 13.96736-14.00832 20.97152-30.88384 20.97152-50.70848z" fill="#4D4D4D" p-id="965"></path><path d="M215.8592 204.96384h601.53856a30.63808 30.63808 0 0 0 28.38528-42.47552 30.96576 30.96576 0 0 0-22.36416-18.35008 30.67904 30.67904 0 0 0-6.02112-0.6144H192.75776a30.72 30.72 0 0 0-29.4912 22.20032L108.91264 354.01728a30.55616 30.55616 0 0 0-1.2288 8.51968c0 42.8032 15.1552 79.29856 45.42464 109.568a149.2992 149.2992 0 0 0 109.568 45.38368c42.76224 0 79.29856-15.1552 109.52704-45.38368A149.2992 149.2992 0 0 0 417.5872 362.496a30.63808 30.63808 0 0 0-42.47552-28.38528 30.67904 30.67904 0 0 0-18.96448 28.38528a90.112 90.112 0 0 1-27.36128 66.10944 90.112 90.112 0 0 1-66.10944 27.40224 90.112 90.112 0 0 1-66.1504-27.40224 89.78432 89.78432 0 0 1-27.27936-62.01344L215.8592 204.96384z" fill="#4D4D4D" p-id="966"></path><path d="M357.04832 362.53696a30.67904 30.67904 0 1 1 61.44 0 90.112 90.112 0 0 0 27.40224 66.10944 90.112 90.112 0 0 0 66.10944 27.40224 90.112 90.112 0 0 0 66.10944-27.40224 90.112 90.112 0 0 0 27.40224-66.10944 30.67904 30.67904 0 1 1 61.44 0c0 42.8032-15.1552 79.29856-45.38368 109.568A149.2992 149.2992 0 0 1 512 517.48864a149.2992 149.2992 0 0 1-109.568-45.38368A149.2992 149.2992 0 0 1 357.04832 362.496z" fill="#4D4D4D" p-id="967"></path><path d="M788.43904 184.44288a30.5152 30.5152 0 0 1 7.24992-31.90784 30.5152 30.5152 0 0 1 31.04768-7.53664 30.55616 30.55616 0 0 1 19.6608 19.08736l68.15744 193.86368c1.14688 3.2768 1.72032 6.67648 1.72032 10.15808 0 42.8032-15.11424 79.33952-45.38368 109.568a149.2992 149.2992 0 0 1-109.568 45.38368 149.2992 149.2992 0 0 1-109.52704-45.38368 149.2992 149.2992 0 0 1-45.38368-109.568 30.67904 30.67904 0 0 1 60.8256-5.98016c0.4096 1.96608 0.6144 3.97312 0.6144 5.98016a90.112 90.112 0 0 0 27.36128 66.1504 90.112 90.112 0 0 0 66.10944 27.36128 90.112 90.112 0 0 0 66.1504-27.36128 89.7024 89.7024 0 0 0 27.27936-61.19424l-66.3552-188.6208z" fill="#4D4D4D" p-id="968"></path><path d="M374.94784 244.16256h274.10432a30.63808 30.63808 0 0 1 25.55904 47.80032 30.55616 30.55616 0 0 1-25.55904 13.63968H374.94784a30.67904 30.67904 0 1 1 0-61.44z" fill="#14C188" p-id="969"></path></svg>