<svg t="1743744545957" class="icon" viewBox="0 0 1024 1024" version="1.1" xmlns="http://www.w3.org/2000/svg" p-id="1197"><path d="M145.03936 203.65312v127.13984a30.63808 30.63808 0 0 0 36.74112 30.14656 30.63808 30.63808 0 0 0 24.69888-30.14656V203.65312c0-6.84032 3.44064-10.24 10.24-10.24h127.1808a30.63808 30.63808 0 0 0 30.1056-36.74112 30.63808 30.63808 0 0 0-30.1056-24.69888H216.6784c-19.78368 0-36.70016 6.9632-50.66752 20.97152a69.05856 69.05856 0 0 0-21.01248 50.70848z m535.06048-71.68h127.1808c19.78368 0 36.70016 6.9632 50.66752 20.97152 14.00832 14.00832 21.01248 30.88384 21.01248 50.70848v127.13984a30.67904 30.67904 0 0 1-60.86656 5.98016 30.67904 30.67904 0 0 1-0.57344-5.98016V203.65312c0-6.84032-3.44064-10.24-10.24-10.24h-127.1808a30.72 30.72 0 1 1 0-61.44zM145.03936 667.0336a30.72 30.72 0 1 1 61.44 0v127.13984c0 6.84032 3.44064 10.24 10.24 10.24h127.1808a30.67904 30.67904 0 0 1 5.98016 60.86656 30.67904 30.67904 0 0 1-5.98016 0.57344H216.6784c-19.78368 0-36.70016-6.9632-50.66752-20.97152a69.05856 69.05856 0 0 1-21.01248-50.70848v-127.13984z m672.48128 0a30.72 30.72 0 1 1 61.44 0v127.13984c0 47.80032-23.92064 71.68-71.68 71.68h-127.1808a30.72 30.72 0 1 1 0-61.44h127.1808c6.79936 0 10.24-3.39968 10.24-10.24v-127.13984z" fill="#4D4D4D" p-id="1198"></path><path d="M140.9024 468.1728h742.1952a30.59712 30.59712 0 0 1 30.14656 24.73984 30.72 30.72 0 0 1-30.14656 36.70016H140.9024a30.35136 30.35136 0 0 1-21.7088-9.0112 30.5152 30.5152 0 0 1-8.43776-27.68896 30.63808 30.63808 0 0 1 30.14656-24.73984z" fill="#14C188" p-id="1199"></path></svg>